<svg width="48" height="48" viewBox="0 0 48 48" fill="none" xmlns="http://www.w3.org/2000/svg">
<path d="M24.0001 4.70262C30.2885 4.70262 31.0332 4.7302 33.5063 4.84053C35.8047 4.94166 37.0458 5.32779 37.8733 5.64957C38.9673 6.07248 39.758 6.58732 40.5762 7.40555C41.4036 8.23298 41.9093 9.01444 42.3322 10.1085C42.654 10.9359 43.0401 12.1862 43.1412 14.4755C43.2516 16.9577 43.2791 17.7024 43.2791 23.9817C43.2791 30.2701 43.2516 31.0148 43.1412 33.4879C43.0401 35.7863 42.654 37.0275 42.3322 37.8549C41.9093 38.9489 41.3944 39.7396 40.5762 40.5578C39.7488 41.3852 38.9673 41.8909 37.8733 42.3138C37.0458 42.6356 35.7955 43.0217 33.5063 43.1228C31.024 43.2332 30.2793 43.2607 24.0001 43.2607C17.7116 43.2607 16.9669 43.2332 14.4938 43.1228C12.1954 43.0217 10.9543 42.6356 10.1269 42.3138C9.03283 41.8909 8.24217 41.376 7.42394 40.5578C6.59651 39.7304 6.09086 38.9489 5.66796 37.8549C5.34618 37.0275 4.96005 35.7771 4.85892 33.4879C4.74859 31.0056 4.72101 30.2609 4.72101 23.9817C4.72101 17.6932 4.74859 16.9485 4.85892 14.4755C4.96005 12.1771 5.34618 10.9359 5.66796 10.1085C6.09086 9.01444 6.60571 8.22379 7.42394 7.40555C8.25137 6.57813 9.03283 6.07248 10.1269 5.64957C10.9543 5.32779 12.2046 4.94166 14.4938 4.84053C16.9669 4.7302 17.7116 4.70262 24.0001 4.70262ZM24.0001 0.464355C17.6105 0.464355 16.8106 0.491936 14.3008 0.60226C11.8001 0.712584 10.0809 1.1171 8.59153 1.6963C7.03781 2.30308 5.72312 3.10293 4.41762 4.41762C3.10293 5.72312 2.30308 7.03781 1.6963 8.58234C1.1171 10.0809 0.712584 11.7909 0.60226 14.2916C0.491936 16.8106 0.464355 17.6105 0.464355 24.0001C0.464355 30.3897 0.491936 31.1895 0.60226 33.6994C0.712584 36.2 1.1171 37.9192 1.6963 39.4086C2.30308 40.9623 3.10293 42.277 4.41762 43.5825C5.72312 44.888 7.03781 45.6971 8.58234 46.2946C10.0809 46.8738 11.7909 47.2784 14.2916 47.3887C16.8015 47.499 17.6013 47.5266 23.9909 47.5266C30.3805 47.5266 31.1803 47.499 33.6902 47.3887C36.1908 47.2784 37.91 46.8738 39.3994 46.2946C40.944 45.6971 42.2586 44.888 43.5641 43.5825C44.8696 42.277 45.6787 40.9623 46.2763 39.4178C46.8555 37.9192 47.26 36.2092 47.3703 33.7086C47.4806 31.1987 47.5082 30.3988 47.5082 24.0093C47.5082 17.6197 47.4806 16.8198 47.3703 14.31C47.26 11.8093 46.8555 10.0901 46.2763 8.60073C45.6971 7.03781 44.8972 5.72312 43.5825 4.41762C42.277 3.11212 40.9623 2.30308 39.4178 1.7055C37.9192 1.1263 36.2092 0.721777 33.7086 0.611454C31.1895 0.491936 30.3897 0.464355 24.0001 0.464355Z" fill="#033415"/>
<path d="M24 11.9106C17.3255 11.9106 11.9104 17.3257 11.9104 24.0003C11.9104 30.6749 17.3255 36.0899 24 36.0899C30.6746 36.0899 36.0897 30.6749 36.0897 24.0003C36.0897 17.3257 30.6746 11.9106 24 11.9106ZM24 31.8425C19.6698 31.8425 16.1579 28.3305 16.1579 24.0003C16.1579 19.6701 19.6698 16.1581 24 16.1581C28.3302 16.1581 31.8422 19.6701 31.8422 24.0003C31.8422 28.3305 28.3302 31.8425 24 31.8425Z" fill="#033415"/>
<path d="M39.3903 11.4323C39.3903 12.9952 38.1215 14.2548 36.5678 14.2548C35.0049 14.2548 33.7454 12.986 33.7454 11.4323C33.7454 9.86939 35.0141 8.60986 36.5678 8.60986C38.1215 8.60986 39.3903 9.87859 39.3903 11.4323Z" fill="#033415"/>
</svg>
