<svg width="47" height="48" viewBox="0 0 47 48" fill="none" xmlns="http://www.w3.org/2000/svg">
<path d="M43.5209 0H3.46992C1.55137 0 0 1.54688 0 3.45938V44.5312C0 46.4437 1.55137 48 3.46992 48H43.5209C45.4395 48 47 46.4438 47 44.5406V3.45938C47 1.54688 45.4395 0 43.5209 0ZM13.9439 40.9031H6.96738V17.9906H13.9439V40.9031ZM10.4557 14.8688C8.21582 14.8688 6.40742 13.0219 6.40742 10.7437C6.40742 8.46562 8.21582 6.61875 10.4557 6.61875C12.6863 6.61875 14.4947 8.46562 14.4947 10.7437C14.4947 13.0125 12.6863 14.8688 10.4557 14.8688ZM40.051 40.9031H33.0836V29.7656C33.0836 27.1125 33.0377 23.6906 29.4576 23.6906C25.8316 23.6906 25.2809 26.5875 25.2809 29.5781V40.9031H18.3227V17.9906H25.0055V21.1219H25.0973C26.0244 19.3219 28.301 17.4188 31.6883 17.4188C38.7475 17.4188 40.051 22.1625 40.051 28.3313V40.9031Z" fill="#033415"/>
</svg>
