<svg width="47" height="40" viewBox="0 0 47 40" fill="none" xmlns="http://www.w3.org/2000/svg">
<path d="M14.7857 39.5C32.5172 39.5 42.2183 24.4934 42.2183 11.4837C42.2183 11.0618 42.2091 10.6306 42.1908 10.2087C44.0779 8.81492 45.7065 7.08851 47 5.1106C45.2424 5.9092 43.3764 6.43076 41.4656 6.65747C43.4775 5.42582 44.984 3.49094 45.7057 1.21153C43.8129 2.35712 41.743 3.16522 39.5847 3.60122C38.1304 2.02312 36.2076 0.978233 34.1136 0.628102C32.0195 0.277971 29.8708 0.642101 27.9997 1.66419C26.1287 2.68629 24.6394 4.30941 23.7621 6.28262C22.8849 8.25584 22.6685 10.4692 23.1466 12.5806C19.314 12.3842 15.5647 11.3674 12.1416 9.5962C8.71855 7.82499 5.69815 5.33887 3.27623 2.29903C2.04528 4.46649 1.66861 7.03129 2.22277 9.47218C2.77693 11.9131 4.22033 14.0469 6.25963 15.44C4.72865 15.3903 3.2312 14.9694 1.89102 14.2118V14.3337C1.88964 16.6083 2.65961 18.8132 4.07002 20.5735C5.48044 22.3339 7.44426 23.5411 9.62766 23.99C8.20944 24.3863 6.72097 24.444 5.2774 24.1587C5.89352 26.1149 7.09225 27.8258 8.7063 29.0527C10.3204 30.2796 12.2692 30.9612 14.2808 31.0025C10.8657 33.7422 6.64692 35.2283 2.3041 35.2212C1.53394 35.22 0.764531 35.1718 0 35.0768C4.41184 37.9675 9.544 39.5028 14.7857 39.5Z" fill="#033415"/>
</svg>
