<svg width="47" height="34" viewBox="0 0 47 34" fill="none" xmlns="http://www.w3.org/2000/svg">
<path d="M46.5318 7.4001C46.5318 7.4001 46.0729 4.09072 44.6592 2.6376C42.8691 0.725098 40.868 0.715722 39.95 0.603222C33.3773 0.115722 23.5092 0.115723 23.5092 0.115723H23.4908C23.4908 0.115723 13.6227 0.115722 7.05 0.603222C6.13203 0.715722 4.13086 0.725098 2.34082 2.6376C0.927149 4.09072 0.477344 7.4001 0.477344 7.4001C0.477344 7.4001 0 11.2907 0 15.172V18.8095C0 22.6907 0.468164 26.5813 0.468164 26.5813C0.468164 26.5813 0.927148 29.8907 2.33164 31.3438C4.12168 33.2563 6.47168 33.1907 7.51816 33.397C11.2818 33.7626 23.5 33.8751 23.5 33.8751C23.5 33.8751 33.3773 33.8563 39.95 33.3782C40.868 33.2657 42.8691 33.2563 44.6592 31.3438C46.0729 29.8907 46.5318 26.5813 46.5318 26.5813C46.5318 26.5813 47 22.7001 47 18.8095V15.172C47 11.2907 46.5318 7.4001 46.5318 7.4001ZM18.6439 23.2251V9.73447L31.3395 16.5032L18.6439 23.2251Z" fill="#033415"/>
</svg>
